HIERARCHY
ROOT Hips
{
	OFFSET 0.000000 0.000000 0.000000
	CHANNELS 6 Xposition Yposition Zposition Zrotation Yrotation Xrotation 
	JOINT LHipJoint
	{
		OFFSET 0.000000 0.000000 0.000000
		CHANNELS 3 Zrotation Yrotation Xrotation
		JOINT LeftUpLeg
		{
			OFFSET 1.363060 -1.794630 0.839290
			CHANNELS 3 Zrotation Yrotation Xrotation
			JOINT LeftLeg
			{
				OFFSET 2.448110 -6.726130 0.000000
				CHANNELS 3 Zrotation Yrotation Xrotation
				JOINT LeftFoot
				{
					OFFSET 2.562200 -7.039590 0.000000
					CHANNELS 3 Zrotation Yrotation Xrotation
					JOINT LeftToeBase
					{
						OFFSET 0.157640 -0.433110 2.322550
						CHANNELS 3 Zrotation Yrotation Xrotation
						End Site
						{
							OFFSET 0.000000 0.000000 0.000000
						}
					}
				}
			}
		}
	}
	JOINT RHipJoint
	{
		OFFSET 0.000000 0.000000 0.000000
		CHANNELS 3 Zrotation Yrotation Xrotation
		JOINT RightUpLeg
		{
			OFFSET -1.305520 -1.794630 0.839290
			CHANNELS 3 Zrotation Yrotation Xrotation
			JOINT RightLeg
			{
				OFFSET -2.542530 -6.985550 0.000000
				CHANNELS 3 Zrotation Yrotation Xrotation
				JOINT RightFoot
				{
					OFFSET -2.568260 -7.056230 0.000000
					CHANNELS 3 Zrotation Yrotation Xrotation
					JOINT RightToeBase
					{
						OFFSET -0.164730 -0.452590 2.363150
						CHANNELS 3 Zrotation Yrotation Xrotation
						End Site
						{
							OFFSET 0.000000 0.000000 0.000000
						}
					}
				}
			}
		}
	}
	JOINT LowerBack
	{
		OFFSET 0.000000 0.000000 0.000000
		CHANNELS 3 Zrotation Yrotation Xrotation
		JOINT Spine
		{
			OFFSET 0.028270 2.035590 -0.193380
			CHANNELS 3 Zrotation Yrotation Xrotation
			JOINT Spine1
			{
				OFFSET 0.056720 2.048850 -0.042750
				CHANNELS 3 Zrotation Yrotation Xrotation
				JOINT Neck
				{
					OFFSET 0.000000 0.000000 0.000000
					CHANNELS 3 Zrotation Yrotation Xrotation
					JOINT Neck1
					{
						OFFSET -0.054170 1.746240 0.172020
						CHANNELS 3 Zrotation Yrotation Xrotation
						JOINT Head
						{
							OFFSET 0.104070 1.761360 -0.123970
							CHANNELS 3 Zrotation Yrotation Xrotation
							End Site
							{
								OFFSET 0.000000 0.000000 0.000000
							}
						}
					}
				}
				JOINT LeftShoulder
				{
					OFFSET 0.000000 0.000000 0.000000
					CHANNELS 3 Zrotation Yrotation Xrotation
					JOINT LeftArm
					{
						OFFSET 3.362410 1.200890 -0.311210
						CHANNELS 3 Zrotation Yrotation Xrotation
						JOINT LeftForeArm
						{
							OFFSET 4.983000 -0.000000 -0.000000
							CHANNELS 3 Zrotation Yrotation Xrotation
							JOINT LeftHand
							{
								OFFSET 3.483560 -0.000000 -0.000000
								CHANNELS 3 Zrotation Yrotation Xrotation
								JOINT LeftFingerBase
								{
									OFFSET 0.000000 0.000000 0.000000
									CHANNELS 3 Zrotation Yrotation Xrotation
									JOINT LeftHandIndex1
									{
										OFFSET 0.715260 -0.000000 -0.000000
										CHANNELS 3 Zrotation Yrotation Xrotation
										End Site
										{
											OFFSET 0.000000 0.000000 0.000000
										}
									}
								}
								JOINT LThumb
								{
									OFFSET 0.000000 0.000000 0.000000
									CHANNELS 3 Zrotation Yrotation Xrotation
									End Site
									{
										OFFSET 0.000000 0.000000 0.000000
									}
								}
							}
						}
					}
				}
				JOINT RightShoulder
				{
					OFFSET 0.000000 0.000000 0.000000
					CHANNELS 3 Zrotation Yrotation Xrotation
					JOINT RightArm
					{
						OFFSET -3.136600 1.374050 -0.404650
						CHANNELS 3 Zrotation Yrotation Xrotation
						JOINT RightForeArm
						{
							OFFSET -5.241900 -0.000000 -0.000000
							CHANNELS 3 Zrotation Yrotation Xrotation
							JOINT RightHand
							{
								OFFSET -3.444170 -0.000000 -0.000000
								CHANNELS 3 Zrotation Yrotation Xrotation
								JOINT RightFingerBase
								{
									OFFSET 0.000000 0.000000 0.000000
									CHANNELS 3 Zrotation Yrotation Xrotation
									JOINT RightHandIndex1
									{
										OFFSET -0.622530 -0.000000 -0.000000
										CHANNELS 3 Zrotation Yrotation Xrotation
										End Site
										{
											OFFSET 0.000000 0.000000 0.000000
										}
									}
								}
								JOINT RThumb
								{
									OFFSET 0.000000 0.000000 0.000000
									CHANNELS 3 Zrotation Yrotation Xrotation
									End Site
									{
										OFFSET 0.000000 0.000000 0.000000
									}
								}
							}
						}
					}
				}
			}
		}
	}
}
MOTION
Frames: 9
Frame Time: 0.008333
-6.304748 17.733754 6.821972 167.217333 70.557479 177.460684 -1.773311 1.603190 1.210417 -23.144148 -4.800420 -20.251025 0.346297 7.536221 23.909472 0.424324 -1.429933 -0.839051 0.427300 -4.195300 -11.626900 -0.468511 -2.426140 1.084785 12.710312 0.137904 -26.386351 -9.370086 -16.949108 58.482427 1.972471 -13.345197 -13.812797 -0.679200 -5.269400 14.678400 -3.628901 4.387008 1.421561 -0.881753 5.237708 0.146604 1.426646 3.217867 0.120848 -5.491956 4.242542 -14.427740 -3.334535 11.160544 31.927906 1.723300 3.493900 16.691100 -10.581856 -1.166112 -1.585722 -76.908322 3.759661 21.037773 13.988905 -26.060825 -3.784499 -0.124397 -1.495808 7.047631 16.600268 22.157758 6.820500 -7.125000 0.000000 0.000000 -13.366000 54.113300 -3.035400 9.061134 1.029345 -1.741909 75.878209 -5.156698 19.007983 -22.423613 30.445442 -7.292826 0.548843 -0.632850 20.397540 -23.314105 4.639267 -2.249400 7.125000 0.000000 0.000000 1.961000 -24.453400 0.973900 
-6.261387 17.722513 6.784332 167.221269 70.214624 177.360055 -1.778995 1.612045 1.248548 -23.310155 -4.659580 -20.072126 0.373245 7.555905 24.028565 0.515993 -1.906454 -1.008631 0.412200 -4.121400 -11.418600 -0.520720 -2.392068 1.039374 12.591225 0.392290 -27.111870 -9.667843 -17.129266 59.401544 1.682777 -11.598619 -12.044422 -0.446100 -4.285500 11.881200 -3.656272 4.396036 1.619661 -1.037779 5.241448 0.062472 1.239455 3.224890 -0.100246 -5.035387 4.097352 -13.966348 -3.410683 10.791717 31.916599 1.542900 3.423300 16.599400 -10.590536 -1.190554 -1.578156 -76.321861 3.718762 22.443992 14.287420 -26.490696 -3.935652 -0.124016 -1.491961 7.126995 16.684935 22.058453 6.828500 -7.125000 0.000000 0.000000 -13.235400 54.027300 -2.976900 9.035774 1.035787 -1.737774 76.300650 -5.140744 18.613521 -22.340190 30.337791 -7.240307 0.546556 -0.637909 20.380649 -23.285078 4.666125 -2.260900 7.125000 0.000000 0.000000 1.983500 -24.418600 0.986700 
-6.217925 17.712776 6.746491 167.499064 69.916422 177.507096 -1.782846 1.619564 1.277473 -23.330889 -4.732227 -19.836161 0.413140 7.603614 24.223991 0.557877 -2.092176 -1.309285 0.370900 -3.912000 -10.829100 -0.561901 -2.358703 0.994537 12.614826 0.684248 -27.828811 -9.921841 -17.278653 60.184867 1.404593 -9.844014 -10.059328 -0.307400 -3.564400 9.854300 -3.616399 4.348765 1.793322 -1.072304 5.176124 0.056881 1.180136 3.190533 -0.189023 -4.816920 4.024014 -13.706677 -3.520373 10.623405 31.880188 1.427000 3.385300 16.530800 -10.589940 -1.216748 -1.567632 -75.968132 3.469925 23.542640 14.579328 -26.890070 -4.085752 -0.117651 -1.482873 7.360085 16.526759 21.878292 6.704600 -7.125000 0.000000 0.000000 -13.318100 53.806800 -2.923700 9.020973 1.039886 -1.735342 76.510351 -5.064576 18.367133 -22.338208 30.324472 -7.237087 0.543657 -0.642011 20.444157 -23.290789 4.697685 -2.277200 7.125000 0.000000 0.000000 1.980300 -24.379300 0.986800 
-6.172356 17.703642 6.706743 167.715788 69.702440 177.655175 -1.784014 1.622433 1.296100 -23.364464 -4.903646 -19.629357 0.460892 7.669146 24.466011 0.569346 -2.113626 -1.613783 0.342500 -3.760700 -10.404300 -0.604319 -2.319904 0.945103 12.643270 0.956821 -28.619020 -10.130035 -17.407418 60.843784 1.122092 -8.110131 -8.311364 -0.183700 -2.760600 7.612900 -3.598118 4.175582 1.861067 -0.997463 4.953859 0.155571 1.277991 3.067096 -0.054009 -5.067898 4.064025 -13.922549 -3.473339 10.775968 31.941961 1.521300 3.403400 16.598900 -10.577165 -1.235598 -1.558956 -75.962483 2.915826 24.131715 14.808979 -27.175094 -4.190217 -0.138728 -1.473845 7.627384 17.055018 21.819890 6.919600 -7.125000 0.000000 0.000000 -12.744700 53.845400 -2.806700 9.026467 1.049871 -1.734269 76.418061 -4.838917 18.482183 -22.417215 30.409539 -7.282923 0.525609 -0.643789 20.499791 -23.119057 4.927024 -2.361000 7.125000 0.000000 0.000000 2.123100 -24.129800 1.070400 
-6.127288 17.693906 6.667999 167.658184 69.534390 177.552147 -1.785945 1.623664 1.312436 -23.498620 -4.989292 -19.458126 0.513515 7.741715 24.730126 0.587160 -2.169784 -1.914941 0.305100 -3.551100 -9.816900 -0.650525 -2.277652 0.890433 12.609077 1.273150 -29.404886 -10.300377 -17.519653 61.399041 0.872692 -6.609198 -7.049348 -0.112000 -2.157800 5.942000 -3.773407 3.901854 1.954566 -0.847765 4.595665 0.311162 1.576447 2.870937 0.147686 -5.474917 4.220746 -14.435821 -3.495742 11.191920 32.031755 1.660300 3.480000 16.749300 -10.554400 -1.259738 -1.551172 -76.236607 2.231670 24.087038 15.052270 -27.461778 -4.301225 -0.165089 -1.458524 8.053041 17.676747 21.659371 7.144700 -7.125000 0.000000 0.000000 -12.027300 53.794900 -2.630100 9.050110 1.054082 -1.732106 76.012087 -4.447093 19.103176 -22.480670 30.484249 -7.320319 0.509073 -0.644921 20.367160 -22.949022 5.213496 -2.468400 7.125000 0.000000 0.000000 2.265400 -23.817700 1.158500 
-6.082722 17.685776 6.629556 167.824996 69.381712 177.642705 -1.784841 1.624963 1.330628 -23.554820 -5.044011 -19.302442 0.568738 7.820074 25.008764 0.609584 -2.236413 -2.236790 0.299300 -3.518000 -9.724300 -0.684092 -2.237556 0.840872 12.672058 1.648124 -30.142111 -10.430506 -17.607027 61.834630 0.656675 -5.264675 -5.918017 -0.125100 -2.279800 6.279600 -3.789050 3.765365 2.111103 -0.797518 4.418606 0.405247 1.648430 2.771355 0.221107 -5.615702 4.242319 -14.730050 -3.454888 11.291292 32.124518 1.725700 3.485600 16.862900 -10.536287 -1.280812 -1.539146 -76.178506 1.647939 24.521583 15.306556 -27.775376 -4.426582 -0.178994 -1.442778 8.461147 17.976167 21.415470 7.199800 -7.125000 0.000000 0.000000 -11.610400 53.594300 -2.479700 9.049460 1.060816 -1.734120 75.945830 -4.378353 19.346686 -22.694499 30.711961 -7.442484 0.507407 -0.638681 20.177105 -22.932482 5.272716 -2.490200 7.125000 0.000000 0.000000 2.282200 -23.757700 1.170300 
-6.035447 17.677345 6.589307 168.139845 69.281296 177.907389 -1.779158 1.624850 1.348835 -23.541731 -5.159181 -19.173921 0.628604 7.909006 25.314977 0.622774 -2.225749 -2.649128 0.297700 -3.508300 -9.697200 -0.711482 -2.198485 0.798963 12.792863 1.984893 -30.919974 -10.512725 -17.670454 62.128902 0.424822 -3.771849 -4.704217 -0.167200 -2.633900 7.261200 -3.667465 3.774508 2.195798 -0.858304 4.431312 0.330416 1.505291 2.777537 0.084132 -5.442909 4.125990 -14.304226 -3.368598 11.031838 32.147712 1.682800 3.436400 16.774000 -10.537476 -1.287566 -1.531703 -75.796057 1.458019 25.477415 15.549854 -28.096876 -4.553765 -0.186123 -1.430127 8.852850 18.117154 21.152488 7.178000 -7.125000 0.000000 0.000000 -11.354700 53.344700 -2.354300 9.009884 1.068194 -1.740559 76.206466 -4.853298 19.235376 -23.005829 31.044298 -7.623937 0.510586 -0.633611 19.954174 -23.032103 5.334705 -2.527500 7.125000 0.000000 0.000000 2.209400 -23.689300 1.136400 
-5.987368 17.663493 6.549960 168.181601 69.211345 177.924343 -1.774376 1.625581 1.367486 -23.638339 -5.229519 -19.058496 0.690014 7.997332 25.623106 0.638000 -2.233763 -3.032801 0.300700 -3.525700 -9.746000 -0.743745 -2.158815 0.755771 12.898768 2.190581 -31.740707 -10.547307 -17.715391 62.275059 0.236259 -2.504707 -3.673398 -0.109700 -2.135800 5.881000 -3.630474 3.780285 2.241883 -0.944817 4.439791 0.270768 1.377000 2.781067 -0.009751 -5.251494 4.033938 -13.922826 -3.310614 10.822649 32.198878 1.633400 3.404200 16.710500 -10.543654 -1.299923 -1.523169 -75.447799 1.227740 26.351266 15.752039 -28.357799 -4.655794 -0.201713 -1.418326 9.198500 18.498610 20.938509 7.274700 -7.125000 0.000000 0.000000 -10.872800 53.192500 -2.211800 8.985192 1.078795 -1.738123 76.391359 -4.997984 19.268560 -23.096402 31.135289 -7.674694 0.516908 -0.633361 19.745426 -23.132974 5.343045 -2.543800 7.125000 0.000000 0.000000 2.131600 -23.674900 1.097000 
-5.940995 17.645627 6.514027 168.124687 69.181384 177.887474 -1.770515 1.621649 1.380351 -23.759830 -5.300874 -18.981795 0.748107 8.080996 25.912618 0.659956 -2.258088 -3.471322 0.263900 -3.304900 -9.128900 -0.774121 -2.115860 0.706239 13.063609 2.413608 -32.608190 -10.539375 -17.742681 62.285446 0.115254 -1.648332 -2.914215 -0.036600 -1.234400 3.393900 -3.707398 3.728488 2.260501 -0.978698 4.374955 0.296162 1.384301 2.741736 0.033255 -5.173079 4.009885 -13.891281 -3.295661 10.765052 32.249823 1.616200 3.393000 16.729400 -10.540097 -1.324108 -1.510118 -75.202645 0.726693 27.086075 15.955774 -28.604483 -4.753203 -0.221306 -1.407618 9.257443 19.097580 20.788966 7.485100 -7.125000 0.000000 0.000000 -10.190400 53.148800 -2.059700 8.981397 1.089204 -1.732863 76.426710 -4.832193 19.467348 -23.135082 31.166508 -7.692270 0.524281 -0.626546 19.688969 -23.151573 5.164419 -2.464500 7.125000 0.000000 0.000000 2.111800 -23.877500 1.076900 
